<?xml version="1.0" encoding="UTF-8" standalone="no"?>
<svg
   version="1.1"
   id="Layer_1"
   x="0px"
   y="0px"
   width="100%"
   viewBox="0 0 256 256"
   enable-background="new 0 0 256 256"
   xml:space="preserve"
   xmlns="http://www.w3.org/2000/svg"
   xmlns:svg="http://www.w3.org/2000/svg">
<path
   fill="#00CCFF"
   opacity="1.000000"
   stroke="none"
   d=" M140.737061,242.652145   C142.683762,238.367264 144.560623,234.450699 146.088394,230.402390   C146.757019,228.630676 147.077820,226.558548 146.917404,224.677322   C146.550232,220.371109 144.163391,218.953339 140.107376,220.442627   C122.539452,226.893265 104.904938,233.176712 87.479561,239.993652   C81.453217,242.351196 77.556366,238.963211 73.144760,236.542267   C70.334984,235.000336 67.769791,233.012711 65.141426,231.256027   C70.932335,228.205032 76.949188,225.327118 82.635208,221.900253   C85.020561,220.462631 87.220650,218.141876 88.543663,215.701477   C89.581505,213.787079 90.084084,211.021698 86.296715,209.936996   C69.398987,205.097549 52.761707,199.155380 35.643002,195.357452   C26.233814,193.269928 22.738325,187.643661 20.013638,180.018768   C19.271584,177.942184 18.558918,175.855072 17.740585,173.508469   C28.408293,174.864212 38.967613,181.961349 49.045872,171.616318   C41.118916,161.321411 33.254498,151.098007 25.378927,140.883224   C20.705992,134.822327 15.964942,128.813110 11.355291,122.704620   C9.219136,119.873901 8.331229,117.035446 9.776524,113.190651   C11.433039,108.783958 11.852943,103.912415 12.746720,99.551956   C18.504589,104.846886 23.840273,109.970253 29.453503,114.768951   C30.926912,116.028572 33.213177,116.662315 35.209957,116.911224   C38.487232,117.319786 40.100658,115.439339 39.992542,112.159424   C39.671452,102.418549 39.325874,92.678482 39.001884,82.937698   C38.660774,72.682343 38.169407,62.427086 38.134132,52.170441   C38.126781,50.033520 39.315960,47.373646 40.846760,45.854881   C44.376373,42.353008 48.454399,39.403896 52.531219,36.048397   C55.274178,59.597698 56.275520,62.150589 64.184555,65.141838   C72.733513,52.585331 81.364662,39.942726 89.951935,27.270388   C92.037621,24.192524 94.363663,21.194359 95.907379,17.849499   C99.254272,10.597648 105.119629,8.646696 112.412811,8.979559   C115.180077,9.105860 117.957939,9.000079 121.089142,9.000079   C116.942299,18.787525 106.346016,26.581085 113.720619,39.006340   C132.591415,32.190113 150.950989,25.718605 169.167648,18.867105   C173.776382,17.133711 177.501755,16.297501 181.740372,19.837275   C185.110199,22.651495 189.296738,24.487749 192.941223,26.651634   C186.984924,29.824587 181.087891,32.683372 175.511124,36.069603   C173.131378,37.514584 170.950592,39.787598 169.552429,42.191998   C168.413223,44.151054 167.852234,46.953362 171.559692,48.025524   C188.601120,52.953785 205.472961,58.551842 222.684326,62.773411   C231.087799,64.834595 235.377670,69.111847 237.134064,77.123520   C237.665558,79.547859 239.258896,81.739410 240.519852,84.357330   C229.575745,83.309486 218.776672,75.575890 209.005371,86.452873   C221.232971,102.373344 233.336746,118.260681 245.610107,134.015900   C248.416611,137.618591 249.819611,140.961502 248.122711,145.630905   C246.603119,149.812408 246.074753,154.354141 245.558731,156.696091   C241.406540,153.262329 236.779129,149.204285 231.889740,145.491150   C229.497849,143.674683 226.760040,142.064697 223.924637,141.144028   C220.335541,139.978607 217.818954,142.509094 217.981567,146.181732   C218.390472,155.417252 218.689133,164.657898 218.994751,173.897705   C219.350494,184.652740 219.781952,195.407898 219.890259,206.165924   C219.909058,208.032394 218.969070,210.411194 217.641281,211.692657   C213.922607,215.281570 209.769150,218.419983 205.484512,221.988281   C203.750610,211.157318 205.705109,199.300873 194.130280,192.293625   C182.581360,209.366196 171.060089,225.592804 160.537140,242.442871   C157.366974,247.519119 153.395294,248.371902 148.725189,248.907959   C144.975067,249.338409 141.136124,248.995010 136.404373,248.995010   C138.063660,246.567902 139.294540,244.767410 140.737061,242.652145  M106.342644,119.151306   C105.895691,124.032112 104.680733,128.989182 105.156281,133.778397   C106.260750,144.901413 117.941414,153.368088 127.724739,154.029785   C140.750122,154.910721 156.065384,142.027435 153.114960,124.833519   C151.226151,113.826370 142.314896,106.036469 132.393661,104.137085   C122.526611,102.248055 111.053856,108.989395 106.342644,119.151306  z"
   id="path1" />
</svg>
