<?xml version="1.0" encoding="UTF-8" standalone="no"?>
<svg
   version="1.1"
   id="Layer_1"
   x="0px"
   y="0px"
   width="100%"
   viewBox="0 0 256 256"
   enable-background="new 0 0 256 256"
   xml:space="preserve"
   xmlns="http://www.w3.org/2000/svg"
   xmlns:svg="http://www.w3.org/2000/svg">
<path
   fill="#FFFF00"
   opacity="1.000000"
   stroke="none"
   d=" M80.865692,215.646088   C82.771545,214.437546 83.873779,215.325256 84.999641,216.457031   C93.095146,224.595093 101.156067,232.769348 109.368706,240.787949   C111.691406,243.055786 111.082161,244.466339 109.081223,246.479294   C104.045197,251.545517 104.130028,251.630569 99.136459,246.637421   C92.194588,239.696182 85.459663,232.528763 78.223602,225.909134   C74.673515,222.661469 74.971718,220.561874 78.477493,218.003693   C79.274086,217.422424 79.909515,216.620285 80.865692,215.646088  z"
   id="path1" />   
<path
   fill="#FFFF00"
   opacity="1.000000"
   stroke="none"
   d=" M55.736141,181.236816   C51.963516,178.455780 51.815056,176.432449 55.228481,173.085220   C74.852959,153.841293 94.213120,134.327347 113.615799,114.858002   C119.063950,109.391121 124.525970,104.161583 131.609222,100.578514   C138.019211,97.336006 143.720901,92.743004 148.376633,87.101944   C150.030838,85.097664 151.265640,84.534523 153.422958,86.814377   C159.259293,92.982262 165.329193,98.933548 171.421783,104.852043   C173.456070,106.828209 173.461624,108.346992 171.353394,110.175926   C163.836700,116.696846 158.216507,124.650124 153.771011,133.507416   C153.201523,134.642059 152.009491,135.474335 151.071701,136.412552   C128.813889,158.680786 106.483879,180.877731 84.370987,203.288895   C81.443611,206.255768 80.019447,205.737610 77.492485,203.096161   C70.469543,195.755005 63.177181,188.671600 55.736141,181.236816  z"
   id="path2" />
<path
   fill="#FFFF00"
   opacity="1.000000"
   stroke="none"
   d=" M145.750000,209.750000   C136.313187,219.189331 127.070900,228.324371 117.981125,237.608719   C115.879150,239.755646 114.649933,240.420334 112.176308,237.821457   C104.368774,229.618713 96.304497,221.654495 88.171928,213.770905   C86.040359,211.704575 85.755890,210.611038 88.054886,208.332092   C110.533516,186.049423 132.870071,163.623474 155.258560,141.249786   C158.521927,137.988586 162.807709,136.243286 166.681732,133.940018   C172.530991,130.462387 177.783936,126.357277 182.209045,121.231827   C184.096649,119.045456 185.348099,118.556396 187.636978,121.012802   C193.197800,126.980667 199.039459,132.694565 204.919281,138.353531   C207.131119,140.482285 207.810562,142.081879 205.152328,144.388550   C197.774155,150.790894 192.232101,158.608948 187.868866,167.324219   C187.228287,168.603775 185.918930,169.564285 184.865540,170.619019   C171.916138,183.585129 158.956787,196.541275 145.750000,209.750000  z"
   id="path3" />
<path
   fill="#FFFF00"
   opacity="1.000000"
   stroke="none"
   d=" M65.250000,95.250000   C69.974815,90.525177 74.747711,86.306320 78.858559,81.518967   C86.047005,73.147545 95.357254,67.730347 104.542702,62.109417   C108.438820,59.725235 111.147659,56.153641 114.333580,53.070148   C116.164612,51.297981 117.244034,50.508472 119.414551,52.804459   C125.246605,58.973679 131.309677,64.929817 137.414505,70.832527   C139.161407,72.521599 139.244385,73.642738 137.369781,75.162270   C129.566528,81.487503 125.143158,90.336678 120.125122,98.705528   C119.329483,100.032448 118.380707,101.085930 117.361404,102.107376   C95.011131,124.504860 72.586990,146.828934 50.315033,169.303864   C47.798607,171.843216 46.483932,172.307465 43.782547,169.443939   C36.243462,161.452347 28.416988,153.722198 20.488384,146.113480   C18.015404,143.740265 17.877003,142.443497 20.419754,139.944962   C35.386463,125.238487 50.160835,110.336273 65.250000,95.250000  z"
   id="path4" />
<path
   fill="#FFFF00"
   opacity="1.000000"
   stroke="none"
   d=" M152.795074,59.702484   C149.592728,62.889896 146.472183,68.279655 143.717484,68.098732   C140.456482,67.884575 137.489319,62.887707 134.433929,59.923565   C129.905136,55.530052 125.410759,51.101063 120.850662,46.637184   C138.219376,30.786287 156.278885,16.620085 178.272064,8.405148   C179.627228,7.898965 181.357376,6.370151 182.630905,7.529034   C184.136169,8.898774 182.304230,10.670528 181.850327,12.040526   C177.062393,26.491808 169.099396,39.171642 159.572891,50.942036   C157.325729,53.718494 155.213242,56.603970 152.795074,59.702484  z"
   id="path5" />
<path
   fill="#FFFF00"
   opacity="1.000000"
   stroke="none"
   d=" M212.253128,95.245506   C223.533859,87.347656 234.790985,80.136559 247.711624,76.072235   C248.619232,75.786736 249.580017,74.074768 250.694595,75.485710   C251.544922,76.562180 250.458511,77.565338 250.150253,78.637367   C245.204666,95.835892 234.950806,109.897293 223.987015,123.599442   C220.158951,128.383621 215.821365,132.613052 211.570694,136.895050   C204.066803,129.397446 196.651855,121.988693 189.039764,114.382988   C196.652588,108.036858 203.626617,100.942192 212.253128,95.245506  z"
   id="path6" />
<path
   fill="#FFFF00"
   opacity="1.000000"
   stroke="none"
   d=" M201.264023,74.324646   C194.341080,84.966850 186.557755,94.409355 177.349014,103.086777   C170.559219,96.221046 163.849503,89.312897 156.974228,82.573677   C155.321854,80.954010 155.100769,80.101593 156.940201,78.475517   C169.995789,66.934250 183.687134,56.239197 199.136627,48.097530   C204.616074,45.209942 210.338333,42.531364 217.162109,40.905064   C214.260300,53.370380 208.553589,64.008217 201.264023,74.324646  z"
   id="path7" />
<path
   fill="#FFFF00"
   opacity="1.000000"
   stroke="none"
   d=" M8.225864,152.277161   C15.361482,145.314560 13.533442,145.084671 20.444950,151.958267   C27.288395,158.764175 33.933754,165.779465 40.976536,172.371124   C45.636425,176.732498 40.659969,178.064789 38.984779,180.517914   C36.931202,183.525162 35.252197,182.970642 32.887241,180.510193   C25.162163,172.473160 17.145329,164.717239 9.339019,156.756790   C8.324099,155.721832 5.542554,154.847519 8.225864,152.277161  z"
   id="path8" />
<path
   fill="#FFFF00"
   opacity="1.000000"
   stroke="none"
   d=" M71.209686,216.283142   C68.669289,217.809082 68.075661,215.471558 67.085098,214.501373   C59.120159,206.700180 51.347225,198.702103 43.341106,190.944290   C41.097427,188.770203 40.701061,187.510422 43.221188,185.140579   C48.579811,180.101562 48.423794,179.936722 53.491444,185.000656   C60.201061,191.705353 66.700111,198.641434 73.706169,205.020630   C77.517334,208.490784 77.813599,210.975082 73.601814,213.934906   C72.796516,214.500824 72.169807,215.320862 71.209686,216.283142  z"
   id="path9" />
</svg>
