<?xml version="1.0" encoding="UTF-8" standalone="no"?>
<svg
   version="1.1"
   id="Layer_1"
   x="0px"
   y="0px"
   width="100%"
   viewBox="0 0 256 256"
   enable-background="new 0 0 256 256"
   xml:space="preserve"
   xmlns="http://www.w3.org/2000/svg"
   xmlns:svg="http://www.w3.org/2000/svg">
<path
   fill="#FF6600"
   opacity="1.000000"
   stroke="none"
   d=" M62.250168,128.749847   C69.802429,136.301102 77.009132,143.702026 84.461533,150.846664   C86.895119,153.179749 87.258110,154.554886 84.588806,157.045029   C77.895683,163.288940 71.515877,169.868698 65.018494,176.305710   C71.320755,183.178772 71.320755,183.178772 64.785583,189.714096   C58.998714,195.501068 58.999016,195.500763 53.061558,189.564972   C37.513847,174.021606 22.012056,158.431747 6.371562,142.982315   C3.823061,140.464951 3.183771,138.576294 6.260525,136.186020   C7.565408,135.172287 8.637922,133.859390 9.815580,132.681976   C14.840754,127.657875 14.953515,127.520920 20.362274,131.978699   C22.500513,133.740982 23.253492,132.228256 24.356611,131.123062   C30.943977,124.523315 37.507164,117.899445 44.561985,110.796860   C50.459930,116.784370 56.230049,122.642105 62.250168,128.749847  z"
   id="path1" />
<path
   fill="#FF6600"
   opacity="1.000000"
   stroke="none"
   d=" M157.255005,203.244705   C155.298264,205.315933 153.591354,207.138947 151.606110,209.259247   C137.748627,195.353897 124.173317,181.679764 110.518570,168.085403   C108.451920,166.027908 108.824295,164.622604 110.724167,162.727066   C143.385056,130.140396 176.011765,97.519379 208.586319,64.846458   C210.371094,63.056320 211.396866,62.783516 213.321930,64.734337   C226.190613,77.775261 239.097504,90.781853 252.207626,103.578682   C255.325073,106.621643 252.724380,107.746178 251.124359,109.348000   C219.930634,140.576935 188.715546,171.784531 157.255005,203.244705  z"
   id="path2" />
<path
   fill="#FF6600"
   opacity="1.000000"
   stroke="none"
   d=" M132.250092,109.250122   C119.639481,121.861946 107.228615,134.174301 94.964973,146.631607   C92.780502,148.850555 91.553085,149.236053 89.135300,146.764008   C76.679993,134.029282 64.057190,121.456551 51.363190,108.958977   C49.399979,107.026146 49.277378,106.109833 51.311810,104.084686   C83.996391,71.549614 116.598709,38.931778 149.156143,6.269378   C151.127167,4.292014 152.237259,3.569425 154.618347,5.994873   C167.912247,19.536402 181.411972,32.875893 195.072662,46.515396   C174.144470,67.414207 153.322281,88.207161 132.250092,109.250122  z"
   id="path3" />
<path
   fill="#FF6600"
   opacity="1.000000"
   stroke="none"
   d=" M89.248703,225.751297   C80.999794,217.499893 73.066879,209.430618 64.955849,201.544540   C62.912525,199.557877 62.757030,198.266815 64.981056,196.463272   C66.651802,195.108398 68.157158,193.516617 69.575562,191.890244   C72.664322,188.348633 75.547798,184.967407 79.606041,190.994629   C81.210159,193.377029 82.434219,190.998917 83.464096,189.986053   C89.157654,184.386520 94.866570,178.797943 100.394310,173.036819   C102.580215,170.758636 104.082802,170.472931 106.466286,172.893890   C119.771072,186.407974 133.221939,199.778244 147.032135,213.607529   C140.467926,220.123962 134.017090,226.712418 127.336594,233.059143   C125.017525,235.262375 124.515907,236.865280 127.324196,238.829376   C130.865097,241.305817 130.263947,243.450073 127.325752,246.301941   C118.433571,254.932831 118.544273,255.046860 109.616859,246.119385   C102.910835,239.413330 96.204758,232.707321 89.248703,225.751297  z"
   id="path4" />
</svg>
