<?xml version="1.0" encoding="UTF-8" standalone="no"?>
<svg
   version="1.1"
   id="Layer_1"
   x="0px"
   y="0px"
   width="100%"
   viewBox="0 0 256 256"
   enable-background="new 0 0 256 256"
   xml:space="preserve"
   xmlns="http://www.w3.org/2000/svg"
   xmlns:svg="http://www.w3.org/2000/svg">
<path
   fill="#009900"
   opacity="1.000000"
   stroke="none"
   d=" M171.226624,174.226669   C166.960693,178.876526 162.944794,183.276367 159.270508,187.301910   C150.099625,178.230865 141.861237,170.082169 134.146133,162.451065   C154.053299,142.545258 174.334396,122.265541 194.260635,102.340660   C201.700653,109.805321 209.878525,118.010284 218.645981,126.806778   C203.356522,142.096420 187.416580,158.036545 171.226624,174.226669  z"
   id="path1" />
<path
   fill="#009900"
   opacity="1.000000"
   stroke="none"
   d=" M34.773685,135.773712   C43.972008,126.574928 53.004429,117.707825 61.817547,108.627869   C64.475098,105.889870 66.207352,105.562393 69.095688,108.471779   C95.843468,135.414459 122.728447,162.220901 149.576202,189.064301   C151.258926,190.746750 153.185440,192.281982 150.634872,194.825775   C137.911331,207.515488 125.228523,220.246078 111.444061,234.051239   C108.064484,229.588562 104.881073,225.384918 101.514969,220.940033   C97.422180,225.371185 94.608337,228.417664 91.296951,232.002808   C94.917053,235.066528 98.808350,238.359772 104.428680,243.116318   C99.889267,246.776123 96.717133,249.715149 93.121254,251.982025   C92.141960,252.599380 89.399719,251.698181 88.294830,250.633957   C80.260941,242.895752 72.438515,234.937988 64.549866,227.048981   C45.711292,208.209534 26.932533,189.309509 7.974112,170.591431   C4.937458,167.593277 4.383488,165.569092 7.824704,162.584000   C10.174764,160.545425 11.907218,157.794891 14.405997,154.769073   C18.576199,159.705627 21.877159,163.613190 25.174282,167.516205   C29.212713,163.393555 32.183125,160.361176 35.804672,156.664093   C32.285202,153.651718 28.401031,150.327194 22.952339,145.663574   C27.423176,141.939011 30.973421,138.981384 34.773685,135.773712  z"
   id="path2" />
<path
   fill="#009900"
   opacity="1.000000"
   stroke="none"
   d=" M143.744354,26.755234   C150.516647,20.928692 156.411118,14.289600 163.690308,10.000633   C178.308289,1.387591 194.084015,3.125690 208.850540,9.592824   C232.752487,20.060904 248.252640,38.257805 252.726959,64.310890   C255.458115,80.213989 251.583313,94.774940 239.262527,106.276634   C235.489029,109.799271 231.768280,113.409241 228.339554,117.260704   C225.579117,120.361504 223.638031,120.299774 220.697647,117.303833   C206.576172,102.915596 192.245621,88.732552 177.989624,74.476341   C165.972168,62.458706 153.954254,50.441532 141.938309,38.422367   C137.014511,33.497234 137.016647,33.495102 142.079941,28.421621   C142.550934,27.949671 143.021927,27.477724 143.744354,26.755234  z"
   id="path3" />
<path
   fill="#009900"
   opacity="1.000000"
   stroke="none"
   d=" M96.773361,73.773361   C108.473862,61.949066 119.924370,50.374775 131.262863,38.913692   C139.959351,47.718410 148.184006,56.045437 156.059525,64.018990   C136.201904,83.877235 116.005112,104.074669 96.261383,123.819008   C88.469490,116.014404 80.199059,107.730484 71.384705,98.901756   C79.322189,91.046448 87.922775,82.534904 96.773361,73.773361  z"
   id="path4" />
<path
   fill="#009900"
   opacity="1.000000"
   stroke="none"
   d=" M156.748535,126.748505   C146.884460,136.673416 137.270401,146.348343 127.974335,155.703232   C119.458755,147.104050 111.219727,138.784134 103.435524,130.923508   C122.985725,111.351059 143.257629,91.056068 163.188705,71.102310   C170.925110,78.740219 179.175095,86.885162 188.084641,95.681274   C177.940445,105.737724 167.469482,116.118111 156.748535,126.748505  z"
   id="path5" />
</svg>
