<?xml version="1.0" encoding="UTF-8" standalone="no"?>
<svg
   version="1.1"
   id="Layer_1"
   x="0px"
   y="0px"
   width="100%"
   viewBox="0 0 256 256"
   enable-background="new 0 0 256 256"
   xml:space="preserve"
   xmlns="http://www.w3.org/2000/svg"
   xmlns:svg="http://www.w3.org/2000/svg">
<path
   fill="#FF0000"
   opacity="1.000000"
   stroke="none"
   d=" M21.363621,198.479324   C27.956160,196.096054 34.253895,193.890625 40.667244,192.099060   C42.107918,191.696625 44.469833,192.198181 45.527622,193.206635   C52.508438,199.861893 59.352818,206.671280 65.967812,213.688614   C67.106804,214.896881 67.666191,217.528351 67.237274,219.175293   C65.888901,224.352783 63.651188,229.300522 62.334698,234.483749   C61.535431,237.630569 59.980461,238.870224 56.971649,239.603561   C41.979385,243.257660 27.045099,247.149185 12.074572,250.893829   C10.994617,251.163971 9.788376,250.929230 8.381207,250.929230   C12.666632,233.381897 16.888618,216.094330 21.363621,198.479324  z"
   id="path1" />
<path
   fill="#FF0000"
   opacity="1.000000"
   stroke="none"
   d=" M158.002075,60.989426   C174.178757,40.287228 196.585083,29.185154 219.482681,18.806389   C226.760620,15.507530 234.062653,12.261250 241.319992,8.917815   C244.170975,7.604377 247.585449,5.618645 249.680588,8.674156   C250.986786,10.579111 250.816299,14.458791 249.822525,16.829279   C240.233932,39.701157 230.367111,62.536430 215.503006,82.566948   C210.301727,89.576035 202.947800,94.988228 196.572449,101.125038   C195.375519,102.277168 194.127945,103.377808 192.953476,104.551956   C158.679657,138.816589 124.413078,173.088501 90.139954,207.353836   C88.867043,208.626465 87.540108,209.845047 86.031677,211.286285   C84.056847,209.456238 82.257927,207.789200 80.174690,205.858688   C77.090988,209.457184 74.856277,207.556046 72.264694,204.862015   C65.109276,197.423706 57.710007,190.219971 50.129768,182.646332   C51.144024,181.451736 52.134724,180.284882 53.079124,179.172546   C47.434372,172.065994 47.434410,172.066025 53.831959,165.668411   C87.276642,132.223312 120.722565,98.779449 154.161224,65.328323   C155.453812,64.035271 156.676514,62.672359 158.002075,60.989426  z"
   id="path2" />
<path
   fill="#FF0000"
   opacity="1.000000"
   stroke="none"
   d=" M157.243805,249.256424   C155.613403,251.170410 154.233353,252.832077 152.941147,254.387985   C131.822449,241.504807 111.415543,229.055832 91.599960,216.967590   C114.974930,193.597321 138.321060,170.255890 161.915009,146.666672   C161.632233,146.404907 162.537842,146.834320 162.719742,147.470627   C169.550308,171.365753 176.187531,195.317459 183.247070,219.144150   C184.131546,222.129349 183.163528,223.361481 181.512695,225.008530   C173.501221,233.001755 165.499405,241.004654 157.243805,249.256424  z"
   id="path3" />
<path
   fill="#FF0000"
   opacity="1.000000"
   stroke="none"
   d=" M105.751587,104.748291   C84.549591,125.985687 63.597435,146.972748 42.337112,168.268478   C35.372578,156.790329 28.645664,145.639267 21.852095,134.528976   C16.915117,126.454971 12.019351,118.350197 6.837794,110.434181   C4.883273,107.448212 4.737255,105.510559 7.502567,102.857704   C16.158892,94.553406 24.613714,86.032990 32.961853,77.417290   C35.407108,74.893661 37.878838,74.528236 40.990299,75.457169   C63.895039,82.295380 86.808998,89.102753 109.729706,95.887238   C110.662415,96.163315 111.691505,96.113762 114.076820,96.361374   C110.943016,99.518913 108.472221,102.008430 105.751587,104.748291  z"
   id="path4" />
</svg>
