<?xml version="1.0" encoding="UTF-8" standalone="no"?>
<svg
   version="1.1"
   id="Layer_1"
   x="0px"
   y="0px"
   width="100%"
   viewBox="0 0 256 256"
   enable-background="new 0 0 256 256"
   xml:space="preserve"
   xmlns="http://www.w3.org/2000/svg"
   xmlns:svg="http://www.w3.org/2000/svg">
<path
   fill="#FFFF99"
   opacity="1.000000"
   stroke="none"
   d=" M234.983917,8.166712   C234.833710,9.055202 235.006058,10.396840 234.486618,10.766574   C216.957474,23.243240 199.355774,35.617897 181.784439,48.035404   C179.162460,49.888332 176.638199,51.879501 173.526230,54.213623   C183.448410,58.842125 193.104065,63.346302 203.700104,68.289146   C177.105637,87.639870 151.163620,106.515854 125.030327,125.531013   C134.870270,130.118179 144.542633,134.627243 155.162186,139.577850   C110.522408,176.577530 66.667984,212.926270 22.813557,249.275024   C22.475494,248.973709 22.137432,248.672409 21.799372,248.371094   C39.090439,221.680328 56.381508,194.989548 73.673218,168.297791   C63.803677,163.723511 53.898838,159.132889 43.311195,154.225784   C61.089348,134.942078 78.586960,115.962677 96.373093,96.670319   C86.294830,91.956116 76.500473,87.374702 66.265381,82.587135   C78.136955,67.842499 89.456360,53.759766 100.802917,39.698956   C109.297218,29.172699 117.826523,18.674681 127.018143,8.404181   C128.510086,8.762211 129.324051,8.982872 130.138168,8.983301   C163.825455,9.001060 197.512772,9.008080 231.200012,8.964402   C232.461655,8.962767 233.722626,8.444320 234.983917,8.166712  z"
   id="path1" />
<path
   fill="#FFFFAA"
   opacity="1.000000"
   stroke="none"
   d=" M234.521790,8.090407   C233.722626,8.444320 232.461655,8.962767 231.200012,8.964402   C197.512772,9.008080 163.825455,9.001060 130.138168,8.983301   C129.324051,8.982872 128.510086,8.762211 127.361969,8.405290   C162.705154,8.115575 198.382416,8.064839 234.521790,8.090407  z"
   id="path2" />
</svg>
