<?xml version="1.0" encoding="UTF-8" standalone="no"?>
<svg
   version="1.1"
   id="Layer_1"
   x="0px"
   y="0px"
   width="100%"
   viewBox="0 0 256 256"
   enable-background="new 0 0 256 256"
   xml:space="preserve"
   xmlns="http://www.w3.org/2000/svg"
   xmlns:svg="http://www.w3.org/2000/svg">
<path
   fill="#00FF00"
   opacity="1.000000"
   stroke="none"
   d=" M240.999161,95.863327   C235.501160,126.591438 215.397934,142.022797 187.147171,148.943954   C176.860641,151.464050 166.439194,152.032242 156.033905,149.129120   C154.653778,148.744049 153.073517,149.076218 150.463028,149.076218   C151.670883,146.997803 152.302277,145.432327 153.341156,144.214417   C156.335541,140.703934 159.664200,137.469803 162.545410,133.873810   C166.117752,129.415176 170.301498,127.890938 176.193161,127.812660   C201.825729,127.472069 223.540375,109.157997 224.998978,81.929955   C225.351959,75.341095 225.644028,68.748878 226.024124,62.161667   C226.087708,61.059525 226.130539,59.722843 226.743271,58.924667   C230.023132,54.652184 233.480637,50.516075 237.793762,45.203278   C239.114075,62.823639 244.263550,78.793938 240.999161,95.863327  z"
   id="path1" />
<path
   fill="#00FF00"
   opacity="1.000000"
   stroke="none"
   d=" M108.281639,182.199387   C93.014160,199.135712 78.025871,215.840927 62.971035,232.485962   C57.878872,238.115982 52.618328,243.593735 47.789528,248.761398   C35.938251,236.910980 24.323729,225.297318 12.264146,213.238617   C17.393494,208.423477 23.068333,202.953613 28.905432,197.662766   C33.411407,193.578461 38.212402,189.819855 42.723885,185.741302   C60.977173,169.239609 79.150146,152.649124 97.391640,136.134323   C106.930122,127.498718 116.446808,118.834419 126.153671,110.390373   C145.392929,93.654037 164.638489,76.921028 184.108994,60.455723   C198.636551,48.170433 213.519562,36.305408 228.248444,24.258305   C233.707718,19.793009 239.052872,15.170387 244.733231,11.005717   C246.150955,9.966286 248.666687,10.424488 250.677734,10.194345   C250.533173,12.205739 251.161880,14.832664 250.125732,16.134344   C238.379471,30.890827 226.319931,45.397255 214.464600,60.067856   C205.406494,71.276970 196.685883,82.762024 187.499008,93.862701   C181.504974,101.105392 174.930832,107.866997 168.641464,114.866478   C154.085876,131.065460 139.540298,147.273438 125.001541,163.487534   C119.497223,169.626114 114.022827,175.791550 108.281639,182.199387  z"
   id="path2" />
<path
   fill="#00FF00"
   opacity="1.000000"
   stroke="none"
   d=" M58.779404,128.662552   C40.093948,137.283310 30.932432,151.798569 30.019356,171.757614   C29.873848,174.938309 30.347443,178.182861 29.886509,181.302078   C29.532434,183.698181 28.764093,186.573303 27.130497,188.143600   C21.078054,193.961411 14.590766,199.326843 8.266294,204.861603   C-2.197124,192.698807 3.802203,146.351486 17.840471,128.622726   C43.036747,96.802650 81.008217,93.167000 114.076767,109.507706   C107.939201,115.267540 102.306885,121.452103 95.682449,126.273537   C93.419609,127.920486 88.559998,126.620857 85.071457,125.841347   C76.055923,123.826843 67.506126,125.142540 58.779404,128.662552  z"
   id="path3" />
</svg>
