<?xml version="1.0" encoding="UTF-8" standalone="no"?>
<svg
   version="1.1"
   id="Layer_1"
   x="0px"
   y="0px"
   width="100%"
   viewBox="0 0 256 256"
   enable-background="new 0 0 256 256"
   xml:space="preserve"
   xmlns="http://www.w3.org/2000/svg"
   xmlns:svg="http://www.w3.org/2000/svg">
<path
   fill="#FF00FF"
   opacity="1.000000"
   stroke="none"
   d=" M9.000000,155.057083   C9.374569,135.695206 15.949438,119.100082 27.924999,104.707664   C32.197132,99.573364 37.362881,95.185890 42.066174,90.403862   C42.853661,89.603188 43.783550,88.591286 43.937500,87.569954   C48.213009,59.205326 62.547573,37.770466 87.693611,23.733570   C101.521446,16.014666 116.470650,12.444604 132.178970,13.107075   C149.874466,13.853352 166.165359,19.408682 180.483917,30.035034   C198.722794,43.570805 209.612122,62.025410 213.571350,84.021660   C214.717209,90.387772 218.714706,92.336548 222.220047,95.682625   C233.264374,106.225182 241.419785,118.725113 245.574463,133.327805   C253.530685,161.291962 249.533768,187.731186 232.078659,211.182190   C218.651489,229.221634 200.050812,239.995468 177.920273,243.841934   C162.918121,246.449417 147.883926,245.469467 133.761627,239.191574   C127.860497,236.568314 123.341095,240.030411 118.480888,241.351501   C88.828880,249.411392 62.437397,243.654282 38.627155,224.254913   C23.442823,211.883514 14.901573,195.642349 10.328144,177.220871   C8.612976,170.312256 9.370066,162.789886 9.000000,155.057083  M67.503494,222.063080   C82.869141,228.717102 101.694092,229.630753 108.303406,225.258179   C105.081848,221.884003 101.712105,218.582977 98.600578,215.054260   C87.832870,202.842773 81.217766,188.710968 78.878731,172.532181   C78.558937,170.320221 77.292381,167.652451 75.585503,166.328598   C63.254269,156.764435 54.508030,144.635254 49.030270,130.138687   C46.955784,124.648689 45.459686,118.940140 43.497627,112.686310   C41.692787,114.989235 40.096596,116.815010 38.731659,118.799812   C23.082970,141.555267 21.355101,165.687225 33.245800,190.274597   C40.244747,204.746902 51.970585,215.191147 67.503494,222.063080  M201.504715,145.006790   C195.650223,151.859024 190.185272,159.112518 183.746613,165.362991   C181.224625,167.811249 179.462830,169.926941 179.008514,173.227081   C177.510376,184.109421 173.977585,194.374725 167.872208,203.409470   C162.469696,211.404114 156.005508,218.681320 150.190460,226.046722   C171.669479,232.386688 205.970779,223.485077 223.627731,192.499451   C238.579468,166.261093 233.876572,133.181793 215.166885,114.068054   C210.876312,123.990219 206.449371,134.227737 201.504715,145.006790  M110.529282,32.993790   C90.236404,37.623184 62.912689,64.427597 64.660072,77.514175   C71.319450,76.336357 78.000000,75.195602 84.664482,73.967644   C98.923599,71.340340 112.488693,74.182999 125.883026,78.895767   C127.646591,79.516281 129.999832,79.560196 131.751999,78.941841   C147.414490,73.414345 163.266800,70.912903 179.722748,74.916855   C184.352585,76.043373 189.053207,76.878952 194.668915,78.044662   C192.588837,73.414566 191.204407,69.290863 189.016327,65.650146   C181.245697,52.720623 170.901917,42.495300 156.858932,36.394756   C142.092850,29.980066 127.014191,27.744104 110.529282,32.993790  M95.020935,157.866150   C95.632866,158.565292 96.108299,159.537766 96.877525,159.921906   C106.083214,164.519058 115.784164,167.558228 126.100929,167.943848   C136.455627,168.330872 146.382141,166.386124 155.961502,162.129639   C162.998245,159.002930 164.526917,157.005569 162.861710,149.715393   C162.683731,148.936249 162.160904,148.228256 162.026520,147.447906   C158.836853,128.924728 149.330154,114.402077 134.488663,103.040695   C130.571579,100.042099 127.816597,99.711487 123.644386,102.923218   C105.798225,116.661057 95.925179,134.402786 95.020935,157.866150  M168.960571,115.697548   C172.781509,125.230301 176.602463,134.763046 180.341232,144.090744   C191.314102,134.314133 198.435776,112.684738 197.697037,99.322952   C182.410034,91.151634 166.503113,87.538818 150.125656,91.639259   C156.373779,99.576019 162.467773,107.317001 168.960571,115.697548  M62.940586,116.658592   C65.091721,127.744423 70.599037,136.911606 78.574112,145.043091   C82.842651,123.681435 92.465248,106.056435 108.965820,92.244812   C97.275139,88.223007 77.783760,89.141090 59.527359,100.006279   C60.470921,105.148544 61.462952,110.554985 62.940586,116.658592  M117.541054,210.026581   C120.138870,211.961563 122.893051,213.722412 125.293159,215.877594   C128.015396,218.322052 130.289200,218.144928 132.827911,215.707611   C138.696671,210.073227 145.380875,205.099365 150.344833,198.768158   C154.703781,193.208618 157.172363,186.166962 160.904221,178.951736   C139.051819,186.942261 118.689789,186.886673 98.274292,179.402451   C100.742287,188.646774 106.922897,200.075531 117.541054,210.026581  z"
   id="path1" />
<path
   fill="#FF00FF"
   opacity="1.000000"
   stroke="none"
   d=" M146.749847,123.248756   C152.781158,130.498291 152.956329,138.778595 149.607086,146.147141   C146.187393,153.670654 139.899689,159.147415 130.466095,159.032562   C119.330383,158.897003 110.898506,154.028839 108.035843,145.219543   C103.058632,129.903183 111.011948,115.474289 128.668152,114.353897   C135.323059,113.931610 142.440811,116.200806 146.749847,123.248756  z"
   id="path2" />
</svg>
